Coordinates
version=1
nRows=22
nColumns=24
inDegrees=yes

Units are S.I. units (second, meters, Newtons, ...)
If the header above contains a line with 'inDegrees', this indicates whether rotational values are in degrees (yes) or radians (no).

endheader
time	pelvis_tilt	pelvis_list	pelvis_rotation	pelvis_tx	pelvis_ty	pelvis_tz	hip_flexion_r	hip_adduction_r	hip_rotation_r	knee_angle_r	ankle_angle_r	subtalar_angle_r	mtp_angle_r	hip_flexion_l	hip_adduction_l	hip_rotation_l	knee_angle_l	ankle_angle_l	subtalar_angle_l	mtp_angle_l	lumbar_extension	lumbar_bending	lumbar_rotation
     18.76000000	     -4.11433637	     -5.42215228	      1.50986093	     -0.28114012	      0.67465978	      0.03600258	     66.11067699	    -20.03141971	    -14.25118549	   -101.76560982	     24.02405494	      9.25648037	      0.00000000	     75.72611677	    -31.76600618	     11.21188310	   -106.63021210	      7.43842501	     41.49386648	      0.00000000	    -57.86070297	      0.05223835	      5.28726596
     18.77000000	     -4.20608576	     -5.44198376	      1.58687570	     -0.28114227	      0.67443206	      0.03636191	     66.19287282	    -20.00922497	    -14.24636213	   -101.77603893	     24.06374124	      9.28945883	      0.00000000	     75.89202824	    -31.73015308	     11.28417410	   -106.60671477	      7.37859062	     41.50148767	      0.00000000	    -57.97529773	      0.09609282	      5.26115193
     18.78000000	     -4.28883518	     -5.44941655	      1.65123796	     -0.28110376	      0.67418550	      0.03676373	     66.27362188	    -20.00169344	    -14.24081473	   -101.80067604	     24.09742837	      9.32627262	      0.00000000	     76.03501875	    -31.72782769	     11.32418107	   -106.58769402	      7.35945327	     41.52454958	      0.00000000	    -58.10078412	      0.11343484	      5.24272276
     18.79000000	     -4.34591575	     -5.44821348	      1.70952533	     -0.28104447	      0.67395995	      0.03719224	     66.33451512	    -20.00389843	    -14.23780192	   -101.83951429	     24.12360140	      9.34265108	      0.00000000	     76.14077305	    -31.73893828	     11.34779854	   -106.57144462	      7.35723418	     41.53761087	      0.00000000	    -58.25003839	      0.11481013	      5.23555159
     18.80000000	     -4.39867625	     -5.44941372	      1.76600473	     -0.28096002	      0.67371228	      0.03762555	     66.38863493	    -20.02263143	    -14.25928073	   -101.88684273	     24.14530994	      9.35772583	      0.00000000	     76.25081646	    -31.76667788	     11.36700866	   -106.56578258	      7.35325455	     41.55228428	      0.00000000	    -58.39852376	      0.11591161	      5.22719484
     18.81000000	     -4.45454243	     -5.47979105	      1.82682305	     -0.28085497	      0.67342695	      0.03807213	     66.43277774	    -20.04617696	    -14.33675224	   -101.94316001	     24.16016469	      9.37515742	      0.00000000	     76.39898277	    -31.80545514	     11.43146489	   -106.56821563	      7.31848650	     41.58573357	      0.00000000	    -58.51956227	      0.15404378	      5.20169358
     18.82000000	     -4.49434579	     -5.47886993	      1.87261161	     -0.28074726	      0.67314999	      0.03854107	     66.48636988	    -20.07250071	    -14.38128797	   -102.01738431	     24.17183976	      9.35457223	      0.00000000	     76.49461840	    -31.84713034	     11.44500029	   -106.57235771	      7.32824189	     41.58945132	      0.00000000	    -58.66523288	      0.14427282	      5.19780240
     18.83000000	     -4.53084725	     -5.51209300	      1.92205915	     -0.28062902	      0.67286573	      0.03902198	     66.51920117	    -20.08507946	    -14.48246229	   -102.08716241	     24.15425709	      9.26250500	      0.00000000	     76.62363094	    -31.89986945	     11.50940693	   -106.58471952	      7.31762605	     41.59423132	      0.00000000	    -58.80414801	      0.17444596	      5.18701876
     18.84000000	     -4.56399357	     -5.53088852	      1.96325653	     -0.28050676	      0.67256106	      0.03952095	     66.56380763	    -20.09534411	    -14.56920932	   -102.17146346	     24.13955606	      9.14668842	      0.00000000	     76.73435010	    -31.94907976	     11.55671159	   -106.59987661	      7.31957866	     41.59211113	      0.00000000	    -58.94333085	      0.18286013	      5.19253347
     18.85000000	     -4.59366779	     -5.54893403	      2.00306153	     -0.28038727	      0.67225202	      0.04002732	     66.60901512	    -20.10097390	    -14.65785806	   -102.25978077	     24.12189727	      9.00699771	      0.00000000	     76.84079022	    -31.99187173	     11.60896958	   -106.61537524	      7.32205582	     41.58373069	      0.00000000	    -59.08451560	      0.19155302	      5.20288066
     18.86000000	     -4.62128386	     -5.56735710	      2.04141985	     -0.28027076	      0.67193131	      0.04054352	     66.65620434	    -20.09638475	    -14.74401654	   -102.35053550	     24.10408168	      8.84110294	      0.00000000	     76.94552768	    -32.02656182	     11.67167597	   -106.63193910	      7.32125826	     41.57549956	      0.00000000	    -59.22351588	      0.20195352	      5.21793301
     18.87000000	     -4.64811971	     -5.58511534	      2.08107611	     -0.28016395	      0.67160426	      0.04106166	     66.70576053	    -20.08032086	    -14.81944019	   -102.43954052	     24.09052760	      8.66669449	      0.00000000	     77.04999065	    -32.04922885	     11.74402175	   -106.64821263	      7.31646056	     41.56993771	      0.00000000	    -59.36310008	      0.21303167	      5.23677343
     18.88000000	     -4.67412138	     -5.60271123	      2.12204830	     -0.28007244	      0.67128276	      0.04158204	     66.75720938	    -20.05126657	    -14.88349091	   -102.52403989	     24.08247127	      8.48960491	      0.00000000	     77.15203177	    -32.05652664	     11.82757821	   -106.66166744	      7.30657539	     41.56611830	      0.00000000	    -59.50357889	      0.22755040	      5.25776345
     18.89000000	     -4.70027146	     -5.61792869	      2.16685580	     -0.28000332	      0.67097397	      0.04209745	     66.81175364	    -20.01063443	    -14.93119466	   -102.60189038	     24.08316618	      8.31885595	      0.00000000	     77.25012575	    -32.04359928	     11.91842463	   -106.67029386	      7.29396125	     41.56029989	      0.00000000	    -59.64916976	      0.24450657	      5.27717186
     18.90000000	     -4.72963622	     -5.63169295	      2.21510013	     -0.27996485	      0.67069311	      0.04261651	     66.87107707	    -19.95360841	    -14.96556320	   -102.66842853	     24.08698479	      8.14395182	      0.00000000	     77.34499093	    -32.00863811	     12.01531552	   -106.67046659	      7.27869746	     41.54795167	      0.00000000	    -59.79732825	      0.26509907	      5.29494331
     18.91000000	     -4.76479031	     -5.64030241	      2.27043742	     -0.27994753	      0.67043916	      0.04313376	     66.93801912	    -19.88790975	    -14.98547257	   -102.72593364	     24.09923554	      7.96260333	      0.00000000	     77.43708909	    -31.95085221	     12.11030645	   -106.66222082	      7.26389164	     41.52245393	      0.00000000	    -59.95189223	      0.28865931	      5.30686736
     18.92000000	     -4.80551493	     -5.64380740	      2.32999726	     -0.27996481	      0.67020009	      0.04366281	     67.01688881	    -19.81023343	    -14.99241387	   -102.77799811	     24.11197729	      7.76391328	      0.00000000	     77.52831506	    -31.87313238	     12.20345788	   -106.64770164	      7.25151870	     41.48018908	      0.00000000	    -60.10757828	      0.31365823	      5.31282422
     18.93000000	     -4.85602687	     -5.64388137	      2.39597859	     -0.28001814	      0.66998210	      0.04419872	     67.10908170	    -19.71922918	    -14.99082348	   -102.82087767	     24.12084712	      7.52427933	      0.00000000	     77.62357644	    -31.77399798	     12.29358575	   -106.62594867	      7.24202606	     41.41587366	      0.00000000	    -60.25991378	      0.34212981	      5.31231722
     18.94000000	     -4.92076625	     -5.63938150	      2.46626109	     -0.28010186	      0.66979182	      0.04474874	     67.21656709	    -19.61761890	    -14.98602084	   -102.85405392	     24.12777819	      7.24186263	      0.00000000	     77.72234114	    -31.65592498	     12.37636225	   -106.59322391	      7.23842986	     41.33104463	      0.00000000	    -60.40808640	      0.37220106	      5.30480523
     18.95000000	     -5.00299421	     -5.63271912	      2.54020577	     -0.28022051	      0.66963060	      0.04531456	     67.34007808	    -19.50320596	    -14.98038799	   -102.87352905	     24.12933696	      6.90958064	      0.00000000	     77.82988222	    -31.52334492	     12.45216490	   -106.54879565	      7.24121861	     41.22667844	      0.00000000	    -60.55033042	      0.40254289	      5.29029641
     18.96000000	     -5.09680633	     -5.62229678	      2.61720754	     -0.28036652	      0.66950888	      0.04589288	     67.46978020	    -19.38193929	    -14.97714316	   -102.87982907	     24.14279951	      6.54128075	      0.00000000	     77.93613301	    -31.37639877	     12.51997128	   -106.49139431	      7.25084159	     41.11045473	      0.00000000	    -60.68527052	      0.43414383	      5.27209928
     18.97000000	     -5.21243757	     -5.61554843	      2.68955777	     -0.28054460	      0.66943386	      0.04650347	     67.61191966	    -19.24245909	    -14.98039183	   -102.86091151	     24.14417946	      6.12482295	      0.00000000	     78.05526073	    -31.22884128	     12.58432936	   -106.41622061	      7.26304912	     40.97671347	      0.00000000	    -60.81228461	      0.46292415	      5.24895861
